<svg width="121" height="54" viewBox="0 0 121 54" fill="none" xmlns="http://www.w3.org/2000/svg">
<path d="M58.2949 34.3711C58.1517 35.888 57.5918 37.0729 56.6152 37.9258C55.6387 38.7721 54.3398 39.1953 52.7188 39.1953C51.5859 39.1953 50.5866 38.9284 49.7207 38.3945C48.8613 37.8542 48.1973 37.0892 47.7285 36.0996C47.2598 35.11 47.0156 33.9609 46.9961 32.6523V31.3242C46.9961 29.9831 47.2337 28.8014 47.709 27.7793C48.1842 26.7572 48.8646 25.9694 49.75 25.416C50.6419 24.8626 51.6706 24.5859 52.8359 24.5859C54.4049 24.5859 55.668 25.0124 56.625 25.8652C57.582 26.7181 58.1387 27.9225 58.2949 29.4785H55.834C55.7168 28.4564 55.4173 27.7207 54.9355 27.2715C54.4603 26.8158 53.7604 26.5879 52.8359 26.5879C51.7617 26.5879 50.9349 26.9818 50.3555 27.7695C49.7826 28.5508 49.4896 29.6999 49.4766 31.2168V32.4766C49.4766 34.013 49.75 35.1849 50.2969 35.9922C50.8503 36.7995 51.6576 37.2031 52.7188 37.2031C53.6888 37.2031 54.418 36.985 54.9062 36.5488C55.3945 36.1126 55.7038 35.3867 55.834 34.3711H58.2949ZM66.5957 39C66.4915 38.7982 66.4004 38.4694 66.3223 38.0137C65.5671 38.8014 64.6426 39.1953 63.5488 39.1953C62.4876 39.1953 61.6217 38.8926 60.9512 38.2871C60.2806 37.6816 59.9453 36.9329 59.9453 36.041C59.9453 34.9147 60.362 34.0521 61.1953 33.4531C62.0352 32.8477 63.2331 32.5449 64.7891 32.5449H66.2441V31.8516C66.2441 31.3047 66.0911 30.8685 65.7852 30.543C65.4792 30.2109 65.0137 30.0449 64.3887 30.0449C63.8483 30.0449 63.4056 30.1816 63.0605 30.4551C62.7155 30.722 62.543 31.0638 62.543 31.4805H60.1699C60.1699 30.901 60.362 30.3607 60.7461 29.8594C61.1302 29.3516 61.651 28.9544 62.3086 28.668C62.9727 28.3815 63.7116 28.2383 64.5254 28.2383C65.7624 28.2383 66.7487 28.5508 67.4844 29.1758C68.2201 29.7943 68.5977 30.6667 68.6172 31.793V36.5586C68.6172 37.5091 68.7507 38.2676 69.0176 38.834V39H66.5957ZM63.9883 37.291C64.457 37.291 64.8965 37.1771 65.3066 36.9492C65.7233 36.7214 66.0358 36.4154 66.2441 36.0312V34.0391H64.9648C64.0859 34.0391 63.4251 34.1921 62.9824 34.498C62.5397 34.804 62.3184 35.237 62.3184 35.7969C62.3184 36.2526 62.4681 36.6172 62.7676 36.8906C63.0736 37.1576 63.4805 37.291 63.9883 37.291ZM73.334 28.4336L73.4023 29.5371C74.1445 28.6712 75.1602 28.2383 76.4492 28.2383C77.862 28.2383 78.8288 28.7786 79.3496 29.8594C80.1178 28.7786 81.1986 28.2383 82.5918 28.2383C83.7572 28.2383 84.623 28.5605 85.1895 29.2051C85.7624 29.8496 86.0553 30.8001 86.0684 32.0566V39H83.6953V32.125C83.6953 31.4544 83.5488 30.9629 83.2559 30.6504C82.9629 30.3379 82.4779 30.1816 81.8008 30.1816C81.2604 30.1816 80.8177 30.3281 80.4727 30.6211C80.1341 30.9076 79.8965 31.2852 79.7598 31.7539L79.7695 39H77.3965V32.0469C77.3639 30.8034 76.7292 30.1816 75.4922 30.1816C74.5417 30.1816 73.8678 30.569 73.4707 31.3438V39H71.0977V28.4336H73.334ZM97.7578 33.8242C97.7578 35.4583 97.3867 36.7637 96.6445 37.7402C95.9023 38.7103 94.9062 39.1953 93.6562 39.1953C92.4974 39.1953 91.5697 38.8145 90.873 38.0527V43.0625H88.5V28.4336H90.6875L90.7852 29.5078C91.4818 28.6615 92.429 28.2383 93.627 28.2383C94.916 28.2383 95.9251 28.7201 96.6543 29.6836C97.39 30.6406 97.7578 31.972 97.7578 33.6777V33.8242ZM95.3945 33.6191C95.3945 32.5645 95.1829 31.7279 94.7598 31.1094C94.3431 30.4909 93.7441 30.1816 92.9629 30.1816C91.9928 30.1816 91.2962 30.582 90.873 31.3828V36.0703C91.3027 36.8906 92.0059 37.3008 92.9824 37.3008C93.7376 37.3008 94.3268 36.998 94.75 36.3926C95.1797 35.7806 95.3945 34.8561 95.3945 33.6191ZM106.176 37.9648C105.479 38.7852 104.49 39.1953 103.207 39.1953C102.061 39.1953 101.192 38.86 100.6 38.1895C100.014 37.5189 99.7207 36.5488 99.7207 35.2793V28.4336H102.094V35.25C102.094 36.5911 102.65 37.2617 103.764 37.2617C104.916 37.2617 105.694 36.8483 106.098 36.0215V28.4336H108.471V39H106.234L106.176 37.9648ZM116.811 36.1289C116.811 35.7057 116.635 35.3835 116.283 35.1621C115.938 34.9408 115.362 34.7454 114.555 34.5762C113.747 34.4069 113.074 34.1921 112.533 33.9316C111.348 33.3587 110.756 32.5286 110.756 31.4414C110.756 30.5299 111.14 29.7682 111.908 29.1562C112.676 28.5443 113.653 28.2383 114.838 28.2383C116.101 28.2383 117.12 28.5508 117.895 29.1758C118.676 29.8008 119.066 30.6113 119.066 31.6074H116.693C116.693 31.1517 116.524 30.7741 116.186 30.4746C115.847 30.1686 115.398 30.0156 114.838 30.0156C114.317 30.0156 113.891 30.1361 113.559 30.377C113.233 30.6178 113.07 30.9401 113.07 31.3438C113.07 31.7083 113.223 31.9915 113.529 32.1934C113.835 32.3952 114.454 32.6003 115.385 32.8086C116.316 33.0104 117.045 33.2546 117.572 33.541C118.106 33.821 118.5 34.1595 118.754 34.5566C119.014 34.9538 119.145 35.4355 119.145 36.002C119.145 36.9525 118.751 37.724 117.963 38.3164C117.175 38.9023 116.143 39.1953 114.867 39.1953C114.001 39.1953 113.23 39.0391 112.553 38.7266C111.876 38.4141 111.348 37.9844 110.971 37.4375C110.593 36.8906 110.404 36.3014 110.404 35.6699H112.709C112.742 36.2298 112.953 36.6628 113.344 36.9688C113.734 37.2682 114.252 37.418 114.896 37.418C115.521 37.418 115.997 37.3008 116.322 37.0664C116.648 36.8255 116.811 36.513 116.811 36.1289Z" fill="#F57A7C"/>
<path d="M28.5 38.8126C28.1899 38.8126 27.8852 38.7359 27.6161 38.5901L12.0234 30.1473C11.888 30.0732 11.7342 30.0342 11.5778 30.0342C11.4213 30.0343 11.2677 30.0734 11.1322 30.1476C10.9968 30.2218 10.8844 30.3285 10.8063 30.4569C10.7283 30.5854 10.6873 30.731 10.6875 30.8792V38.8126C10.6872 39.1138 10.7721 39.4095 10.9332 39.6692C11.0943 39.9288 11.3258 40.1429 11.6037 40.2892L27.635 48.7267C27.8996 48.8659 28.1973 48.939 28.5 48.939C28.8027 48.939 29.1004 48.8659 29.365 48.7267L45.3963 40.2892C45.6742 40.1429 45.9057 39.9288 46.0668 39.6692C46.2279 39.4095 46.3128 39.1138 46.3125 38.8126V30.8792C46.3127 30.731 46.2718 30.5854 46.1937 30.4569C46.1156 30.3285 46.0032 30.2218 45.8678 30.1476C45.7323 30.0734 45.5787 30.0343 45.4222 30.0342C45.2658 30.0342 45.1121 30.0732 44.9766 30.1473L29.3839 38.5901C29.1148 38.7359 28.8101 38.8126 28.5 38.8126Z" fill="#220651"/>
<path d="M55.2098 20.0917V20.0801C55.181 19.8126 55.0852 19.5555 54.9302 19.3302C54.7753 19.105 54.5658 18.918 54.3192 18.7849L29.3817 5.28495C29.1125 5.13918 28.8078 5.0625 28.4978 5.0625C28.1877 5.0625 27.883 5.13918 27.6138 5.28495L2.67631 18.7849C2.40376 18.9326 2.17724 19.1458 2.0197 19.4031C1.86215 19.6603 1.77917 19.9525 1.77917 20.2499C1.77917 20.5473 1.86215 20.8395 2.0197 21.0967C2.17724 21.354 2.40376 21.5672 2.67631 21.7149L27.6138 35.2149C27.883 35.3606 28.1877 35.4373 28.4978 35.4373C28.8078 35.4373 29.1125 35.3606 29.3817 35.2149L51.3222 23.338C51.3562 23.3195 51.3946 23.3097 51.4338 23.3098C51.473 23.3098 51.5114 23.3196 51.5453 23.3382C51.5792 23.3569 51.6073 23.3836 51.6267 23.4158C51.6462 23.448 51.6564 23.4845 51.6562 23.5216V38.7649C51.6562 39.673 52.3932 40.4525 53.3518 40.4978C53.5926 40.5088 53.8333 40.4734 54.0592 40.3936C54.2852 40.3139 54.4917 40.1915 54.6663 40.0339C54.8408 39.8763 54.9798 39.6868 55.0748 39.4769C55.1697 39.2669 55.2187 39.0408 55.2187 38.8124V20.2499C55.2186 20.1971 55.2156 20.1443 55.2098 20.0917Z" fill="#220651"/>
</svg>
